<svg xmlns="http://www.w3.org/2000/svg" width="52.631" height="12.169" viewBox="0 0 52.631 12.169"><g transform="translate(-6285.434 -1123.335)"><path d="M8.867,8.084a1.217,1.217,0,1,1,1.217-1.217A1.22,1.22,0,0,1,8.867,8.084Zm3.651-1.1a3.653,3.653,0,1,0-7.3,0c0,1.424,1.186,3.31,3.651,5.561C11.332,10.3,12.518,8.413,12.518,6.989ZM8.867,2a4.84,4.84,0,0,1,4.867,4.989q0,3.03-4.867,7.18Q4,10.016,4,6.989A4.84,4.84,0,0,1,8.867,2Z" transform="translate(6281.434 1121.335)"/><path d="M2.641-6.652h4.42v1.28H1.206V-12.6H6.958v1.28H2.641v1.652H6.369v1.26H2.641ZM14.94-9.2a1.9,1.9,0,0,1,.862.614,1.821,1.821,0,0,1,.356,1.182,1.831,1.831,0,0,1-.651,1.5,2.778,2.778,0,0,1-1.807.532H9.787V-12.6H13.67a2.439,2.439,0,0,1,1.657.5,1.674,1.674,0,0,1,.563,1.322,1.58,1.58,0,0,1-.95,1.508Zm-3.717-2.22v1.755H13.5a.9.9,0,0,0,.676-.238.89.89,0,0,0,.232-.651.841.841,0,0,0-.243-.63.883.883,0,0,0-.645-.238Zm2.416,4.874a1.009,1.009,0,0,0,.754-.263.953.953,0,0,0,.258-.7.99.99,0,0,0-.268-.707.974.974,0,0,0-.743-.284H11.222v1.952ZM20.372-12.6v7.228H18.895V-12.6Zm8.147,7.228-2.84-3.046h-.743v3.046H23.459V-12.6h1.477v2.86h.743l2.53-2.86h1.755L26.908-9.172V-9.1l3.418,3.728Zm5.638-1.28h4.42v1.28H32.722V-12.6h5.752v1.28H34.157v1.652h3.728v1.26H34.157Z" transform="translate(6299.488 1138.406)" fill="#1d1e22"/></g></svg>