<svg xmlns="http://www.w3.org/2000/svg" xmlns:xlink="http://www.w3.org/1999/xlink" width="375" height="251" viewBox="0 0 375 251"><defs><linearGradient id="a" x1="0.5" x2="0.5" y2="1" gradientUnits="objectBoundingBox"><stop offset="0" stop-color="#eee5df"/><stop offset="1" stop-color="#eee5df" stop-opacity="0"/></linearGradient><clipPath id="c"><rect width="375" height="251"/></clipPath></defs><g id="b" clip-path="url(#c)"><rect width="375" height="251" fill="#fff"/><rect width="562.718" height="302.152" transform="translate(-101.146 -36.152)" fill="#eee5df"/><path d="M5689.224,6430.651l-536.352-30.528,3.286-.839,533.066,29.591Z" transform="translate(-5226.812 -6280.134)" fill="#fff"/><path d="M5102.041,6417.266l557.175-23.486v-1.022l-559.827,23.16Z" transform="translate(-5197.183 -6276.568)" fill="#fff"/><path d="M5754.091,6375.152l-471.1,14.825-5.06-.7Z" transform="translate(-5295.139 -6266.949)" fill="#fff"/><rect width="548.562" height="265.434" transform="translate(-89.644 -6.954)" opacity="0.55" fill="url(#a)"/><g transform="translate(260.223 82.298)"><path d="M5625.794,6226.406a8.555,8.555,0,0,0-3.444.5c-1.217.623-6.057,3.472-6.585,11.216s4.353,14.125,5.741,16.253a45.127,45.127,0,0,0,2.908,3.928l1.822.72-.2-14.693-3.135-1.453-.586-6.114,3.586-1.355Z" transform="translate(-5615.725 -6226.397)" fill="#1a7958"/><path d="M9.147,32.585h0c-.031-.04-.782-.989-1.8-2.39-.606-.836-1.187-1.667-1.727-2.471-.675-1-1.286-1.968-1.818-2.863a29.721,29.721,0,0,1-1.927-3.909c-.508-1.242-.864-2.325-1.072-3.014a16.735,16.735,0,0,1-.6-2.549A18.222,18.222,0,0,1,0,12.626,17.552,17.552,0,0,1,.684,7.711a15.127,15.127,0,0,1,.8-2.145A12.881,12.881,0,0,1,2.549,3.7,10.516,10.516,0,0,1,3.837,2.156,8.4,8.4,0,0,1,5.316.992,6.87,6.87,0,0,1,6.949.257a6.125,6.125,0,0,1,3.508,0,6.871,6.871,0,0,1,1.634.736A8.4,8.4,0,0,1,13.57,2.156,10.515,10.515,0,0,1,14.858,3.7,12.875,12.875,0,0,1,15.92,5.567a15.118,15.118,0,0,1,.8,2.145,17.55,17.55,0,0,1,.684,4.915A18.224,18.224,0,0,1,17.2,15.4a16.721,16.721,0,0,1-.6,2.557h0l-.01.026a14.792,14.792,0,0,1-.783,1.947c-.627,1.514-1.584,3.726-2.582,5.671-.905,1.764-1.965,3.569-2.7,4.773-.772,1.274-1.356,2.174-1.381,2.211h0ZM8.4,9.56a1.8,1.8,0,0,0-1.47,1.151,6.065,6.065,0,0,0-.609,2.778,6.064,6.064,0,0,0,.609,2.778A1.8,1.8,0,0,0,8.4,17.417a1.8,1.8,0,0,0,1.47-1.151,6.064,6.064,0,0,0,.609-2.778,6.065,6.065,0,0,0-.609-2.778A1.8,1.8,0,0,0,8.4,9.56Z" transform="translate(1.366 0.009)" fill="#2bb786"/><path d="M2.9,7.878a2.379,2.379,0,0,1-1.582-.636,1.417,1.417,0,0,0,.834.286A1.854,1.854,0,0,0,3.679,6.451a5.221,5.221,0,0,0,.631-2.6,5.222,5.222,0,0,0-.631-2.6A1.854,1.854,0,0,0,2.155.175c-.042,0-.084,0-.125.006A2.211,2.211,0,0,1,2.9,0a2.248,2.248,0,0,1,1.13.31,3.028,3.028,0,0,1,.923.844,4.218,4.218,0,0,1,.622,1.252,5.268,5.268,0,0,1,0,3.067,4.216,4.216,0,0,1-.622,1.252,3.027,3.027,0,0,1-.923.844A2.248,2.248,0,0,1,2.9,7.878ZM.115,5.04A5.27,5.27,0,0,1,0,3.939c0-.014,0-.028,0-.042A6.057,6.057,0,0,0,.115,5.04Z" transform="translate(7.681 9.451)" fill="#1a7958"/></g><g transform="translate(26.809 62.167)"><path d="M5642.694,6226.556s-8.146-.026-11.081,1.345-14.518,7.35-15.792,24.424,10.489,31.142,13.834,35.833a64.391,64.391,0,0,0,6.948,8.146l5.245,2.022-1.267-32.314-7.556-3.207-1.412-13.479,8.641-2.989Z" transform="translate(-5615.726 -6226.492)" fill="#1a7958"/><path d="M22.894,71.832h0c-.065-.084-6.581-8.519-12.713-17.029A65.925,65.925,0,0,1,2.155,39.543,32.935,32.935,0,0,1,1.83,17,28.56,28.56,0,0,1,6.821,8.152a23.467,23.467,0,0,1,7.4-5.965,19.881,19.881,0,0,1,18.132,0,23.467,23.467,0,0,1,7.4,5.965A28.559,28.559,0,0,1,44.75,17a32.381,32.381,0,0,1,1.83,10.834,32.175,32.175,0,0,1-2.17,11.747h0l-.026.056a29.648,29.648,0,0,1-2.1,4.3c-1.678,3.337-4.238,8.214-6.908,12.5a87.8,87.8,0,0,1-8,10.523c-2.491,2.857-4.467,4.856-4.486,4.876Zm-.415-50.757c-3.067,0-5.562,3.885-5.562,8.66s2.5,8.659,5.562,8.659,5.562-3.885,5.562-8.659S25.546,21.076,22.479,21.076Z" transform="translate(3.292 0)" fill="#2bb786"/><path d="M3.523,18.729A5.668,5.668,0,0,1,0,17.444a3.66,3.66,0,0,0,1.463.309,4.682,4.682,0,0,0,3.844-2.488A11.512,11.512,0,0,0,6.9,9.157,12.027,12.027,0,0,0,5.346,3.015,4.787,4.787,0,0,0,1.582.369,5.328,5.328,0,0,1,3.523,0,6.175,6.175,0,0,1,8.447,2.743a11.131,11.131,0,0,1,2.04,6.622,11.131,11.131,0,0,1-2.04,6.622A6.175,6.175,0,0,1,3.523,18.729Z" transform="translate(24.384 20.693)" fill="#1a7958"/></g><path d="M5629.989,6557.465l-548.958-80.93,2-5.636,572.376,81.158v7.066Z" transform="translate(-5187.561 -6319.262)" fill="#fff"/><path d="M5097,6568.291l554.865-72.352v-3.775l-571.524,70.664v4.844Z" transform="translate(-5187.181 -6330.88)" fill="#fff"/><path d="M5845.131,6483.3l-235.585-18.392-68.785,4.5-7.453-.818,80.032-6.475,248.209,19.271Z" transform="translate(-5434.666 -6314.461)" fill="#fff"/><path d="M6169.421,6427.109l-134.4,9.523-3.379-.769,137.783-10.6Z" transform="translate(-5706.935 -6294.33)" fill="#fff"/><path d="M6067.825,6531.21l121.9,12.529v-4.148l-113.053-10.905Z" transform="translate(-5726.706 -6350.834)" fill="#fff"/><g transform="translate(136.029 40.722)"><path d="M5668.472,6226.444s-11.656-.586-18.037,2.4-31.731,16.644-34.5,53.761,22.8,67.7,30.075,77.9a218.5,218.5,0,0,0,15.232,18.824l9.543,3.454-1.024-70.424-16.424-6.971-3.072-29.3,18.787-6.5Z" transform="translate(-5615.725 -6226.398)" fill="#1a7958"/><path d="M47.911,156.163h0c-.165-.191-4.094-4.742-9.414-11.456-3.173-4-6.217-7.99-9.047-11.844-3.535-4.815-6.739-9.432-9.522-13.721A137.855,137.855,0,0,1,9.835,100.408C7.173,94.454,5.311,89.266,4.217,85.961A74.514,74.514,0,0,1,1.094,73.744,80.049,80.049,0,0,1,0,60.51,77.462,77.462,0,0,1,3.583,36.957a68.72,68.72,0,0,1,4.2-10.279,60.581,60.581,0,0,1,5.567-8.955A51.762,51.762,0,0,1,20.1,10.334a43.663,43.663,0,0,1,7.744-5.579A37.723,37.723,0,0,1,36.4,1.229a34.952,34.952,0,0,1,18.376,0,37.729,37.729,0,0,1,8.558,3.526,43.672,43.672,0,0,1,7.744,5.579,51.765,51.765,0,0,1,6.748,7.389,60.605,60.605,0,0,1,5.567,8.955,68.7,68.7,0,0,1,4.2,10.279A77.454,77.454,0,0,1,91.181,60.51a80.077,80.077,0,0,1-1.1,13.281,74.445,74.445,0,0,1-3.145,12.256h.008l-.053.126a67.51,67.51,0,0,1-4.1,9.333c-3.285,7.255-8.3,17.859-13.524,27.179-4.741,8.454-10.294,17.107-14.117,22.877-4.045,6.1-7.1,10.417-7.232,10.6l0,0ZM44,45.818c-2.908,0-5.642,1.958-7.7,5.514a27.029,27.029,0,0,0-3.189,13.312A27.027,27.027,0,0,0,36.3,77.956c2.056,3.556,4.79,5.514,7.7,5.514s5.642-1.958,7.7-5.514A27.027,27.027,0,0,0,54.89,64.644,27.027,27.027,0,0,0,51.7,51.332C49.645,47.776,46.91,45.818,44,45.818Z" transform="translate(7.157 0.046)" fill="#2bb786"/><path d="M15.041,40.7a12.351,12.351,0,0,1-8.2-3.285,7.361,7.361,0,0,0,4.324,1.476c2.983,0,5.787-1.975,7.9-5.563A26.909,26.909,0,0,0,22.334,19.9a26.912,26.912,0,0,0-3.271-13.43C16.954,2.88,14.15.9,11.168.9c-.216,0-.435.011-.649.032A11.487,11.487,0,0,1,15.041,0,11.678,11.678,0,0,1,20.9,1.6,15.676,15.676,0,0,1,25.677,5.96,21.763,21.763,0,0,1,28.9,12.429a27.132,27.132,0,0,1,0,15.842,21.757,21.757,0,0,1-3.223,6.468A15.677,15.677,0,0,1,20.9,39.1,11.677,11.677,0,0,1,15.041,40.7ZM.6,26.039A27.143,27.143,0,0,1,0,20.35c0-.072,0-.144,0-.216a31.2,31.2,0,0,0,.6,5.905Z" transform="translate(40.203 44.784)" fill="#1a7958"/></g><g transform="translate(305.341 62.167)"><path d="M5643.294,6226.421s-6.092-.306-9.427,1.254-16.585,8.7-18.033,28.1,11.919,35.386,15.72,40.715a114.225,114.225,0,0,0,7.962,9.839l3.589,1.449.863-36.452-6.875.8-3.314-19.76,9.82-3.4Z" transform="translate(-5615.725 -6226.396)" fill="#1a7958"/><path d="M23.658,81.623h0c-.081-.1-2.022-2.478-4.648-5.988-1.567-2.093-3.07-4.176-4.467-6.191-1.746-2.517-3.327-4.93-4.7-7.172a73.513,73.513,0,0,1-4.984-9.791c-1.314-3.112-2.234-5.824-2.774-7.551A40.81,40.81,0,0,1,.54,38.544,44.234,44.234,0,0,1,0,31.627,42.673,42.673,0,0,1,1.769,19.316a37.148,37.148,0,0,1,2.075-5.372A32.013,32.013,0,0,1,6.593,9.264,26.562,26.562,0,0,1,9.925,5.4a21.637,21.637,0,0,1,3.824-2.916A18.058,18.058,0,0,1,17.975.643a16.338,16.338,0,0,1,9.074,0,18.06,18.06,0,0,1,4.226,1.843A21.638,21.638,0,0,1,35.1,5.4,26.558,26.558,0,0,1,38.43,9.264a32,32,0,0,1,2.749,4.681,37.127,37.127,0,0,1,2.075,5.372,42.669,42.669,0,0,1,1.769,12.311,44.242,44.242,0,0,1-.544,6.941,40.778,40.778,0,0,1-1.553,6.406h0l-.026.066a36.383,36.383,0,0,1-2.026,4.878c-1.622,3.792-4.1,9.335-6.678,14.206-2.341,4.419-5.083,8.941-6.971,11.957-2,3.19-3.508,5.445-3.571,5.539v0Zm-1.93-57.675c-1.436,0-2.786,1.023-3.8,2.882a14.8,14.8,0,0,0-1.574,6.958,14.794,14.794,0,0,0,1.574,6.958c1.015,1.859,2.365,2.882,3.8,2.882s2.786-1.024,3.8-2.882A14.793,14.793,0,0,0,27.1,33.788a14.794,14.794,0,0,0-1.575-6.958C24.514,24.971,23.164,23.948,21.728,23.948Z" transform="translate(3.741 0.024)" fill="#2bb786"/><path d="M7.742,20.35a6.074,6.074,0,0,1-2.461-.525,3.411,3.411,0,0,0,.467.032c1.535,0,2.979-1.032,4.064-2.905A14.217,14.217,0,0,0,11.5,9.939a14.721,14.721,0,0,0-1.422-6.532A5.828,5.828,0,0,0,6.558.118,6,6,0,0,1,7.742,0a6.907,6.907,0,0,1,5.474,2.98,11.9,11.9,0,0,1,2.268,7.195,11.9,11.9,0,0,1-2.268,7.195A6.907,6.907,0,0,1,7.742,20.35Zm-7.625-8.4A13.432,13.432,0,0,1,0,10.175c0-.037,0-.074,0-.111a17.02,17.02,0,0,0,.117,1.88Z" transform="translate(19.538 23.781)" fill="#1a7958"/></g></g></svg>