<svg xmlns="http://www.w3.org/2000/svg" xmlns:xlink="http://www.w3.org/1999/xlink" width="379" height="667" viewBox="0 0 379 667"><defs><clipPath id="a"><rect width="379" height="667" fill="#fff"/></clipPath><clipPath id="b"><rect width="403" height="607" fill="#1d1e22"/></clipPath><linearGradient id="c" x1="0.162" y1="0.84" x2="0.808" y2="0.073" gradientUnits="objectBoundingBox"><stop offset="0" stop-color="#fff"/><stop offset="1" stop-color="#fff" stop-opacity="0"/></linearGradient></defs><g clip-path="url(#a)"><g transform="translate(-24 -63)" clip-path="url(#b)"><g transform="translate(-110.883 -37.783) rotate(-13)" opacity="0.05"><path d="M0,0H777.9V777.9H0Z" transform="translate(0 0)" fill="none"/><path d="M259.3,324.126A64.825,64.825,0,1,1,324.126,259.3,65.016,65.016,0,0,1,259.3,324.126Zm194.476-58.343c0-117.658-85.893-200.958-194.476-200.958S64.825,148.126,64.825,265.784c0,75.845,63.2,176.325,194.476,296.251C390.572,442.108,453.777,341.629,453.777,265.784ZM259.3,0C395.434,0,518.6,104.369,518.6,265.784q0,161.415-259.3,382.469Q.162,427.036,0,265.784C0,104.369,123.168,0,259.3,0Z" transform="translate(129.65 64.825)" fill="url(#c)"/></g></g></g></svg>