<svg xmlns="http://www.w3.org/2000/svg" xmlns:xlink="http://www.w3.org/1999/xlink" width="720" height="1080" viewBox="0 0 720 1080"><defs><clipPath id="a"><rect width="720" height="1080" fill="#1d1e22"/></clipPath><linearGradient id="b" x1="0.162" y1="0.84" x2="0.808" y2="0.073" gradientUnits="objectBoundingBox"><stop offset="0" stop-color="#fff"/><stop offset="1" stop-color="#fff" stop-opacity="0"/></linearGradient></defs><g clip-path="url(#a)"><g transform="translate(-197.652 -67.35) rotate(-13)" opacity="0.05"><path d="M0,0H1386.638V1386.638H0Z" transform="translate(0 0)" fill="none"/><path d="M462.213,577.766c-63.554,0-115.553-52-115.553-115.554s52-115.553,115.553-115.553,115.553,52,115.553,115.553S525.767,577.766,462.213,577.766Zm346.66-104c0-209.729-153.108-358.215-346.66-358.215s-346.66,148.486-346.66,358.215c0,135.2,112.664,314.3,346.66,528.078C696.208,788.073,808.872,608.965,808.872,473.768ZM462.213,0C704.875,0,924.425,186.041,924.425,473.768q0,287.727-462.213,681.764Q.289,761.207,0,473.768C0,186.041,219.551,0,462.213,0Z" transform="translate(231.106 115.553)" fill="url(#b)"/></g></g></svg>