<svg xmlns="http://www.w3.org/2000/svg" width="153.702" height="196.452" viewBox="0 0 153.702 196.452"><g transform="translate(9.497)"><path d="M0,0H134.708V134.708H0Z" fill="none"/><path d="M48.9,58.128A11.226,11.226,0,1,1,60.128,46.9,11.259,11.259,0,0,1,48.9,58.128Zm33.677-10.1c0-20.375-14.874-34.8-33.677-34.8s-33.677,14.425-33.677,34.8c0,13.134,10.945,30.534,33.677,51.3C71.635,78.559,82.58,61.159,82.58,48.025ZM48.9,2c23.574,0,44.9,18.073,44.9,46.025q0,27.952-44.9,66.232Q4.028,75.949,4,48.025C4,20.073,25.329,2,48.9,2Z" transform="translate(18.451 9.226)" fill="#2bb786"/></g><path d="M7.109,11.863H25.287V17.13H1.206V-12.6H24.862v5.266H7.109v6.8H22.441V4.643H7.109ZM57.692,1.373A7.8,7.8,0,0,1,61.239,3.9,7.49,7.49,0,0,1,62.7,8.763a7.531,7.531,0,0,1-2.676,6.18Q57.353,17.13,52.6,17.13H36.5V-12.6H52.468q4.5,0,6.817,2.039A6.885,6.885,0,0,1,61.6-5.125a6.5,6.5,0,0,1-3.907,6.2ZM42.4-7.758v7.22h9.386a3.719,3.719,0,0,0,2.782-.977,3.662,3.662,0,0,0,.956-2.676,3.461,3.461,0,0,0-1-2.591,3.631,3.631,0,0,0-2.654-.977Zm9.938,20.046a4.151,4.151,0,0,0,3.1-1.083A3.919,3.919,0,0,0,56.5,8.338a4.07,4.07,0,0,0-1.1-2.909,4.006,4.006,0,0,0-3.058-1.168H42.4v8.027ZM80.032-12.6V17.13H73.959V-12.6Zm33.51,29.73L101.862,4.6H98.8V17.13H92.731V-12.6H98.8V-.836h3.058L112.268-12.6h7.22L106.916,1.5v.3L120.974,17.13Zm23.189-5.266h18.178V17.13H130.827V-12.6h23.656v5.266H136.731v6.8h15.332V4.643H136.731Z" transform="translate(-1.206 179.322)" fill="#fff"/></svg>