<svg xmlns="http://www.w3.org/2000/svg" width="16" height="16" viewBox="0 0 16 16"><g transform="translate(-0.406 -0.406)"><g transform="translate(0.08 0.08)"><rect width="16" height="16" transform="translate(0.326 0.325)" fill="none"/></g><g transform="translate(2.034 0.671)"><path d="M11.181,1H7.091V2.364h4.091ZM8.454,9.863H9.818V5.772H8.454Zm5.475-4.506.968-.968a7.532,7.532,0,0,0-.961-.961l-.968.968a6.135,6.135,0,1,0,.961.961Zm-4.793,8.6a4.772,4.772,0,1,1,4.772-4.772A4.769,4.769,0,0,1,9.136,13.954Z" transform="translate(-3 -1)"/></g></g></svg>